<svg width="60" height="60" viewBox="0 0 60 60" fill="none" xmlns="http://www.w3.org/2000/svg">
<rect width="60" height="60" rx="10" fill="#CCC314"/>
<path d="M21.02 39.286C19.096 39.286 17.5707 38.7573 16.444 37.7C15.3347 36.6253 14.78 35.1867 14.78 33.384H18.03C18.03 34.3373 18.2987 35.0827 18.836 35.62C19.3733 36.1573 20.1013 36.426 21.02 36.426C21.9387 36.426 22.6667 36.166 23.204 35.646C23.7413 35.1087 24.01 34.3633 24.01 33.41V23.036H19.59V20.02H27.26V33.41C27.26 35.23 26.6967 36.6687 25.57 37.726C24.4607 38.766 22.944 39.286 21.02 39.286ZM37.4418 39.26C36.1418 39.26 35.0152 39.0433 34.0618 38.61C33.1085 38.1767 32.3718 37.5613 31.8518 36.764C31.3492 35.9493 31.0892 34.996 31.0718 33.904H34.3218C34.3218 34.684 34.5992 35.2993 35.1538 35.75C35.7258 36.1833 36.4972 36.4 37.4678 36.4C38.4038 36.4 39.1318 36.1833 39.6518 35.75C40.1892 35.3167 40.4578 34.7187 40.4578 33.956C40.4578 33.3147 40.2672 32.76 39.8858 32.292C39.5218 31.8067 38.9932 31.4773 38.2998 31.304L36.1158 30.706C34.6252 30.3247 33.4725 29.64 32.6578 28.652C31.8605 27.664 31.4618 26.468 31.4618 25.064C31.4618 23.9893 31.7045 23.0533 32.1898 22.256C32.6752 21.4587 33.3598 20.8433 34.2438 20.41C35.1452 19.9767 36.2025 19.76 37.4158 19.76C39.2532 19.76 40.7092 20.2367 41.7838 21.19C42.8585 22.126 43.4045 23.3913 43.4218 24.986H40.1718C40.1718 24.2407 39.9292 23.66 39.4438 23.244C38.9585 22.8107 38.2738 22.594 37.3898 22.594C36.5405 22.594 35.8818 22.7933 35.4138 23.192C34.9458 23.5907 34.7118 24.154 34.7118 24.882C34.7118 25.5407 34.8852 26.104 35.2318 26.572C35.5958 27.0227 36.1158 27.3433 36.7918 27.534L39.0538 28.158C40.5618 28.5393 41.7145 29.224 42.5118 30.212C43.3092 31.1827 43.7078 32.3873 43.7078 33.826C43.7078 34.9007 43.4478 35.854 42.9278 36.686C42.4078 37.5007 41.6798 38.1333 40.7438 38.584C39.8078 39.0347 38.7072 39.26 37.4418 39.26Z" fill="black"/>
</svg>
