<svg width="60" height="60" viewBox="0 0 60 60" fill="none" xmlns="http://www.w3.org/2000/svg">
<rect width="60" height="60" rx="10" fill="#2755A1"/>
<path d="M21.904 39.26C20.6907 39.26 19.6247 39.0347 18.706 38.584C17.8047 38.116 17.1027 37.466 16.6 36.634C16.1147 35.7847 15.872 34.788 15.872 33.644V25.376C15.872 24.2147 16.1147 23.218 16.6 22.386C17.1027 21.554 17.8047 20.9127 18.706 20.462C19.6247 19.994 20.6907 19.76 21.904 19.76C23.1347 19.76 24.192 19.994 25.076 20.462C25.9773 20.9127 26.6793 21.554 27.182 22.386C27.6847 23.218 27.936 24.2147 27.936 25.376H24.66C24.66 24.4747 24.4173 23.79 23.932 23.322C23.464 22.854 22.788 22.62 21.904 22.62C21.02 22.62 20.3353 22.854 19.85 23.322C19.3647 23.79 19.122 24.466 19.122 25.35V33.644C19.122 34.528 19.3647 35.2127 19.85 35.698C20.3353 36.166 21.02 36.4 21.904 36.4C22.788 36.4 23.464 36.166 23.932 35.698C24.4173 35.2127 24.66 34.528 24.66 33.644H27.936C27.936 34.7707 27.6847 35.7587 27.182 36.608C26.6793 37.4573 25.9773 38.116 25.076 38.584C24.192 39.0347 23.1347 39.26 21.904 39.26ZM37.2078 39.26C35.9772 39.26 34.9025 39.0347 33.9838 38.584C33.0825 38.1333 32.3805 37.5007 31.8778 36.686C31.3752 35.8713 31.1238 34.9093 31.1238 33.8H34.3998C34.3998 34.6493 34.6425 35.3167 35.1278 35.802C35.6305 36.27 36.3325 36.504 37.2338 36.504C38.1352 36.504 38.8285 36.2613 39.3138 35.776C39.7992 35.2907 40.0418 34.632 40.0418 33.8V32.318C40.0418 31.4687 39.7992 30.81 39.3138 30.342C38.8285 29.8567 38.1352 29.614 37.2338 29.614H35.1018V26.676L39.2878 22.802H31.9818V20.02H42.5898V22.958L37.2338 27.872V26.832C39.1058 26.832 40.5878 27.326 41.6798 28.314C42.7718 29.302 43.3178 30.6367 43.3178 32.318V33.8C43.3178 34.9093 43.0665 35.8713 42.5638 36.686C42.0612 37.5007 41.3505 38.1333 40.4318 38.584C39.5132 39.0347 38.4385 39.26 37.2078 39.26Z" fill="white"/>
</svg>
