<svg width="60" height="60" viewBox="0 0 60 60" fill="none" xmlns="http://www.w3.org/2000/svg">
<rect width="60" height="60" rx="10" fill="#D25700"/>
<path d="M18.534 39V19.89H21.42V27.95H25.58V19.89H28.466V39H25.58V30.446H21.42V39H18.534ZM36.578 39.208C36.1447 39.208 35.72 39.1733 35.304 39.104C34.888 39.0347 34.4893 38.9133 34.108 38.74C33.7267 38.5493 33.3713 38.3153 33.042 38.038C32.73 37.7433 32.4613 37.414 32.236 37.05C32.028 36.686 31.8633 36.3047 31.742 35.906C31.6207 35.49 31.5427 35.0653 31.508 34.632H34.42C34.4547 34.9093 34.524 35.178 34.628 35.438C34.732 35.698 34.8793 35.932 35.07 36.14C35.2607 36.3307 35.486 36.478 35.746 36.582C36.0233 36.6687 36.3007 36.712 36.578 36.712C36.8207 36.712 37.0633 36.6687 37.306 36.582C37.5487 36.478 37.7567 36.3307 37.93 36.14C38.1033 35.9493 38.242 35.7413 38.346 35.516C38.4673 35.2733 38.554 35.0307 38.606 34.788C38.6753 34.5453 38.7187 34.3027 38.736 34.06C38.7707 33.8 38.788 33.54 38.788 33.28C38.788 33.02 38.7707 32.76 38.736 32.5C38.7187 32.24 38.6667 31.9887 38.58 31.746C38.5107 31.486 38.4067 31.2433 38.268 31.018C38.1293 30.7753 37.956 30.576 37.748 30.42C37.54 30.264 37.306 30.1513 37.046 30.082C36.8033 29.9953 36.5433 29.952 36.266 29.952H32.028L32.86 19.89H40.972V22.386H35.564L35.148 27.456H36.266C36.7687 27.456 37.2713 27.508 37.774 27.612C38.2767 27.6987 38.7447 27.872 39.178 28.132C39.6113 28.3747 39.9927 28.6867 40.322 29.068C40.6687 29.4493 40.946 29.874 41.154 30.342C41.362 30.7927 41.5007 31.2693 41.57 31.772C41.6393 32.2747 41.674 32.7773 41.674 33.28C41.674 33.7653 41.6393 34.2593 41.57 34.762C41.5007 35.2473 41.3707 35.724 41.18 36.192C41.0067 36.6427 40.764 37.0673 40.452 37.466C40.1573 37.8647 39.802 38.2027 39.386 38.48C38.97 38.74 38.5193 38.922 38.034 39.026C37.5487 39.1473 37.0633 39.208 36.578 39.208Z" fill="white"/>
</svg>
