<svg width="17" height="15" viewBox="0 0 17 15" fill="none" xmlns="http://www.w3.org/2000/svg">
<g clip-path="url(#clip0_220_328)">
<path d="M14.9983 4.25749C15.3728 3.92713 15.5832 3.47904 15.5833 3.01178C15.5833 2.54452 15.373 2.09637 14.9986 1.76593C14.6242 1.43549 14.1164 1.24981 13.5868 1.24976C13.0573 1.2497 12.5494 1.43526 12.1749 1.76562L2.72145 10.1087C2.55699 10.2534 2.43537 10.4316 2.36728 10.6275L1.43158 13.3475C1.41327 13.4015 1.41189 13.459 1.42758 13.5137C1.44326 13.5683 1.47544 13.6183 1.52068 13.6581C1.56593 13.698 1.62256 13.7263 1.68456 13.74C1.74657 13.7538 1.81164 13.7525 1.87287 13.7362L4.95624 12.9112C5.17807 12.8517 5.37995 12.7451 5.54416 12.6006L14.9983 4.25749Z" stroke="#8B9BB8" stroke-width="2" stroke-linecap="round" stroke-linejoin="round"/>
</g>
<defs>
<clipPath id="clip0_220_328">
<rect width="17" height="15" fill="white"/>
</clipPath>
</defs>
</svg>
